<?xml version="1.0" encoding="iso-8859-1"?>
<!-- Generator: Adobe Illustrator 19.1.0, SVG Export Plug-In . SVG Version: 6.00 Build 0)  -->
<svg version="1.1" id="Capa_1" xmlns="http://www.w3.org/2000/svg" xmlns:xlink="http://www.w3.org/1999/xlink" x="0px" y="0px"
	 viewBox="0 0 67 67" style="enable-background:new 0 0 67 67;" xml:space="preserve" width="32px" height="32px">
<g>
	<g>
		<path d="M15.977,39.119h20c1.104,0,2-1.015,2-2.119V13c0-1.104-0.896-2-2-2s-2,0.896-2,2v22.119h-18c-1.104,0-2,0.896-2,2
			S14.873,39.119,15.977,39.119z"/>
		<path d="M33.5,67C51.972,67,67,51.973,67,33.5C67,15.028,51.972,0,33.5,0S0,15.028,0,33.5C0,51.973,15.029,67,33.5,67z M33.5,4
			C49.767,4,63,17.234,63,33.5S49.767,63,33.5,63S4,49.766,4,33.5C4,17.234,17.234,4,33.5,4z"/>
	</g>
</g>
<g>
</g>
<g>
</g>
<g>
</g>
<g>
</g>
<g>
</g>
<g>
</g>
<g>
</g>
<g>
</g>
<g>
</g>
<g>
</g>
<g>
</g>
<g>
</g>
<g>
</g>
<g>
</g>
<g>
</g>
</svg>
