<?xml version="1.0" encoding="iso-8859-1"?>
<!-- Generator: Adobe Illustrator 16.0.0, SVG Export Plug-In . SVG Version: 6.00 Build 0)  -->
<!DOCTYPE svg PUBLIC "-//W3C//DTD SVG 1.1//EN" "http://www.w3.org/Graphics/SVG/1.1/DTD/svg11.dtd">
<svg xmlns="http://www.w3.org/2000/svg" xmlns:xlink="http://www.w3.org/1999/xlink" version="1.1" id="Capa_1" x="0px" y="0px" width="20px" height="20px" viewBox="0 0 72.616 72.615" style="enable-background:new 0 0 72.616 72.615;" xml:space="preserve">
<g>
	<g id="Remove_1_">
		<g>
			<path d="M44.279,36.31l26.41-26.611c2.203-2.219,2.203-5.814,0-8.033c-2.201-2.219-5.77-2.219-7.969,0L36.308,28.277L9.896,1.665     c-2.199-2.219-5.77-2.219-7.969,0c-2.204,2.219-2.204,5.814,0,8.033l26.41,26.611L1.927,62.918c-2.204,2.22-2.204,5.814,0,8.033     c1.098,1.113,2.542,1.662,3.986,1.662c1.44,0,2.885-0.549,3.982-1.662L36.308,44.34L62.72,70.953     c1.098,1.112,2.541,1.662,3.986,1.662c1.438,0,2.884-0.55,3.981-1.662c2.203-2.22,2.203-5.814,0-8.033L44.279,36.31z" fill="white"/>
		</g>
	</g>
</g>
<g>
</g>
<g>
</g>
<g>
</g>
<g>
</g>
<g>
</g>
<g>
</g>
<g>
</g>
<g>
</g>
<g>
</g>
<g>
</g>
<g>
</g>
<g>
</g>
<g>
</g>
<g>
</g>
<g>
</g>
</svg>
