<?xml version="1.0" encoding="iso-8859-1"?>
<!-- Generator: Adobe Illustrator 16.0.0, SVG Export Plug-In . SVG Version: 6.00 Build 0)  -->
<!DOCTYPE svg PUBLIC "-//W3C//DTD SVG 1.1//EN" "http://www.w3.org/Graphics/SVG/1.1/DTD/svg11.dtd">
<svg xmlns="http://www.w3.org/2000/svg" xmlns:xlink="http://www.w3.org/1999/xlink" version="1.1" id="Capa_1" x="0px" y="0px" width="32px" height="32px" viewBox="0 0 533.333 533.333" style="enable-background:new 0 0 533.333 533.333;" xml:space="preserve">
<g>
	<path d="M528.468,428.468c-0.002-0.002-0.004-0.004-0.006-0.005L366.667,266.666l161.795-161.797   c0.002-0.002,0.004-0.003,0.006-0.005c1.741-1.742,3.001-3.778,3.809-5.946c2.211-5.925,0.95-12.855-3.814-17.62l-76.431-76.43   c-4.765-4.763-11.694-6.024-17.619-3.812c-2.167,0.807-4.203,2.066-5.946,3.807c0,0.002-0.002,0.003-0.005,0.005L266.667,166.666   L104.87,4.869c-0.002-0.002-0.003-0.003-0.005-0.005c-1.743-1.74-3.778-3-5.945-3.807C92.993-1.156,86.065,0.105,81.3,4.869   L4.869,81.3c-4.764,4.765-6.024,11.694-3.813,17.619c0.808,2.167,2.067,4.205,3.808,5.946c0.002,0.001,0.003,0.003,0.005,0.005   l161.797,161.796L4.869,428.464c-0.001,0.002-0.003,0.003-0.004,0.005c-1.741,1.742-3,3.778-3.809,5.945   c-2.212,5.924-0.951,12.854,3.813,17.619L81.3,528.464c4.766,4.765,11.694,6.025,17.62,3.813c2.167-0.809,4.203-2.068,5.946-3.809   c0.001-0.002,0.003-0.003,0.005-0.005l161.796-161.797l161.795,161.797c0.003,0.001,0.005,0.003,0.007,0.004   c1.743,1.741,3.778,3.001,5.944,3.81c5.927,2.212,12.856,0.951,17.619-3.813l76.43-76.432c4.766-4.765,6.026-11.696,3.815-17.62   C531.469,432.246,530.209,430.21,528.468,428.468z" fill="#f44336"/>
</g>

</svg>
