<?xml version="1.0" encoding="iso-8859-1"?>
<!-- Generator: Adobe Illustrator 16.0.0, SVG Export Plug-In . SVG Version: 6.00 Build 0)  -->
<!DOCTYPE svg PUBLIC "-//W3C//DTD SVG 1.1//EN" "http://www.w3.org/Graphics/SVG/1.1/DTD/svg11.dtd">
<svg xmlns="http://www.w3.org/2000/svg" xmlns:xlink="http://www.w3.org/1999/xlink" version="1.1" id="Capa_1" x="0px" y="0px" width="32px" height="32px" viewBox="0 0 61.59 61.59" style="enable-background:new 0 0 61.59 61.59;" xml:space="preserve">
<g>
	<g id="Decline">
		<g>
			<path d="M30.795,0C13.789,0,0,13.786,0,30.795C0,47.803,13.789,61.59,30.795,61.59c17.01,0,30.795-13.787,30.795-30.795     C61.59,13.786,47.805,0,30.795,0z M30.795,52.275c-11.863,0-21.479-9.617-21.479-21.48c0-11.864,9.616-21.481,21.479-21.481     c11.864,0,21.482,9.617,21.482,21.481C52.277,42.658,42.659,52.275,30.795,52.275z M36.923,19.134l-6.126,6.126l-6.125-6.126     l-5.443,5.443l6.126,6.124l-6.124,6.123l5.441,5.443l6.124-6.125l6.127,6.125l5.44-5.439l-6.127-6.127l6.127-6.128L36.923,19.134     z" fill="#D80027"/>
		</g>
	</g>
</g>
<g>
</g>
<g>
</g>
<g>
</g>
<g>
</g>
<g>
</g>
<g>
</g>
<g>
</g>
<g>
</g>
<g>
</g>
<g>
</g>
<g>
</g>
<g>
</g>
<g>
</g>
<g>
</g>
<g>
</g>
</svg>
