<?xml version="1.0" encoding="iso-8859-1"?>
<!-- Generator: Adobe Illustrator 18.0.0, SVG Export Plug-In . SVG Version: 6.00 Build 0)  -->
<!DOCTYPE svg PUBLIC "-//W3C//DTD SVG 1.1//EN" "http://www.w3.org/Graphics/SVG/1.1/DTD/svg11.dtd">
<svg xmlns="http://www.w3.org/2000/svg" xmlns:xlink="http://www.w3.org/1999/xlink" version="1.1" id="Capa_1" x="0px" y="0px" viewBox="0 0 330 330" style="enable-background:new 0 0 330 330;" xml:space="preserve" width="32px" height="32px">
<g>
	<path d="M315,0H15C6.716,0,0,6.716,0,15v300c0,8.284,6.716,15,15,15h300c8.284,0,15-6.716,15-15V15C330,6.716,323.284,0,315,0z    M300,300H30V30h270V300z" fill="white"/>
	<path d="M95,180h140c8.284,0,15-6.716,15-15s-6.716-15-15-15H95c-8.284,0-15,6.716-15,15S86.716,180,95,180z" fill="white"/>
</g>

</svg>
