<?xml version="1.0" encoding="iso-8859-1"?>
<!-- Generator: Adobe Illustrator 16.0.0, SVG Export Plug-In . SVG Version: 6.00 Build 0)  -->
<!DOCTYPE svg PUBLIC "-//W3C//DTD SVG 1.1//EN" "http://www.w3.org/Graphics/SVG/1.1/DTD/svg11.dtd">
<svg xmlns="http://www.w3.org/2000/svg" xmlns:xlink="http://www.w3.org/1999/xlink" version="1.1" id="Capa_1" x="0px" y="0px" width="32px" height="32px" viewBox="0 0 87.859 87.859" style="enable-background:new 0 0 87.859 87.859;" xml:space="preserve">
<g>
	<g id="Minimize">
		<g>
			<path d="M43.93,0C19.705,0,0,19.705,0,43.93c0,24.224,19.705,43.929,43.93,43.929c24.224,0,43.929-19.705,43.929-43.929     C87.859,19.705,68.154,0,43.93,0z M43.93,79.872c-19.819,0-35.943-16.123-35.943-35.942c0-19.813,16.124-35.943,35.943-35.943     c19.82,0,35.943,16.13,35.943,35.943C79.873,63.749,63.75,79.872,43.93,79.872z M27.957,47.926h31.945V39.94H27.957V47.926z" fill="#FFFFFF"/>
		</g>
	</g>
</g>

</svg>
