<?xml version="1.0" encoding="iso-8859-1"?>
<!-- Generator: Adobe Illustrator 18.1.1, SVG Export Plug-In . SVG Version: 6.00 Build 0)  -->
<svg xmlns="http://www.w3.org/2000/svg" xmlns:xlink="http://www.w3.org/1999/xlink" version="1.1" id="Capa_1" x="0px" y="0px" viewBox="0 0 268.477 268.477" style="enable-background:new 0 0 268.477 268.477;" xml:space="preserve" width="16px" height="16px">
<g id="Favorite">
	<path style="fill-rule:evenodd;clip-rule:evenodd;" d="M267.522,99.163c-2.017-5.389-6.963-9.132-12.693-9.621l-75.845-8.999   l-31.046-71.52c-2.355-5.469-7.728-9.016-13.678-9.024h-0.022c-5.942,0-11.318,3.525-13.685,8.981l-31.06,71.563l-75.845,8.999   c-5.745,0.495-10.692,4.247-12.701,9.643c-2.017,5.397-0.75,11.47,3.262,15.608l58.437,55.242l-17.659,80.845   c-1.041,5.709,1.327,11.514,6.074,14.865c2.564,1.813,5.58,2.731,8.602,2.731c2.564,0,5.128-0.655,7.435-1.988l67.142-42.758   l67.141,42.758c2.309,1.333,4.871,1.988,7.435,1.988c3.015,0,6.015-0.91,8.579-2.717c4.749-3.336,7.122-9.119,6.103-14.828   l-17.665-80.896l58.463-55.272C268.287,110.628,269.547,104.554,267.522,99.163z" fill="#78909c"/>
</g>
</svg>
