<?xml version="1.0" encoding="utf-8"?>
<!-- Generator: Adobe Illustrator 16.0.0, SVG Export Plug-In . SVG Version: 6.00 Build 0)  -->
<!DOCTYPE svg PUBLIC "-//W3C//DTD SVG 1.1//EN" "http://www.w3.org/Graphics/SVG/1.1/DTD/svg11.dtd">
<svg xmlns="http://www.w3.org/2000/svg" xmlns:xlink="http://www.w3.org/1999/xlink" version="1.1" id="Layer_1" x="0px" y="0px" width="64px" height="64px" viewBox="0 0 24 24" enable-background="new 0 0 24 24" xml:space="preserve">
<g>
	<g>
		<path d="M12,0C5.373,0,0,5.373,0,12s5.373,12,12,12s12-5.373,12-12S18.627,0,12,0z M8.463,8c0,0-0.726-4.78,3.436-4.78    c2.322,0,4.106,1.466,3.522,4.261c0.248,0.387,0.502,1.143-0.572,2.226c-0.533,1.506-1.518,2.607-2.848,2.607    c-1.382,0-2.353-0.94-2.868-2.447C8.23,8.945,8.286,8,8.477,8C8.473,8,8.468,8,8.463,8z M12.842,14.061l-0.4,0.568h-0.883    l-0.401-0.568c-0.001-0.003,0.251-0.65,0.251-0.65c0.029,0.005,1.154,0.005,1.184,0C12.592,13.41,12.839,14.051,12.842,14.061z     M12.525,21c-0.003,0-0.007,0-0.011,0c-0.168,0-0.337,0-0.507,0c-0.005,0-0.01,0-0.014,0c-3.149-0.002-5.963-1.44-7.82-3.694    c0.058-0.577,0.188-1.095,0.363-1.558c0.863-2.271,2.835-3.209,2.861-3.222l0.026-0.011l2.068-0.761l0.279,0.675l-0.561,0.206    l2.107,6.978L11.585,15h0.83l0.27,4.699l2.131-7.043l-0.585-0.22l0.277-0.679l2.094,0.77c0.026,0.013,1.997,0.95,2.861,3.222    c0.176,0.462,0.305,0.986,0.363,1.563C18.071,19.442,15.464,21,12.525,21z" fill="#1fb4e4"/>
		<path d="M12.001,11.556c1.541,0,2.512-2.262,2.564-4.425c-0.14-0.06-0.399-0.716-0.439-0.877    c-0.057-0.229-0.468-0.936-0.468-0.936s-0.163,1.164-0.273,1.048c-0.109-0.114-0.207-0.24-0.283-0.378    c-0.167,0.163-0.372,0.342-0.615,0.519c-0.233,0.171-0.433,0.419-1.919,0.872l0.304-1.131c0,0-1.019,1.307-1.412,1.33    C9.624,9.595,10.564,11.556,12.001,11.556z" fill="#1fb4e4"/>
		<path d="M14,18.082v0.437c0,0.004,0.38,0.012,0.553,0.012c0.514,0,1.447-0.062,2.447-0.409v-0.455C16,18.257,14,18.084,14,18.082z    " fill="#1fb4e4"/>
	</g>
</g>
</svg>
